<?xml version="1.0" encoding="UTF-8"?>
<svg xmlns="http://www.w3.org/2000/svg" viewBox="0 0 240 240" width="240" height="240" role="img" aria-labelledby="baoSuccTitle">
  <title id="baoSuccTitle">Bao the otter celebrating success</title>
  <!-- Background -->
  <rect width="240" height="240" fill="#FFFFFF"/>
  <!-- Confetti -->
  <rect x="36" y="40" width="6" height="14" fill="#FF6F00" transform="rotate(20 39 47)"/>
  <rect x="58" y="22" width="6" height="14" fill="#1C69D4" transform="rotate(-30 61 29)"/>
  <rect x="180" y="36" width="6" height="14" fill="#6FB07F" transform="rotate(45 183 43)"/>
  <rect x="204" y="60" width="6" height="14" fill="#C9A24B" transform="rotate(-15 207 67)"/>
  <rect x="22" y="86" width="6" height="14" fill="#1C69D4" transform="rotate(60 25 93)"/>
  <rect x="210" y="110" width="6" height="14" fill="#FF6F00" transform="rotate(-40 213 117)"/>
  <circle cx="48" cy="120" r="3" fill="#C9A24B"/>
  <circle cx="196" cy="148" r="3" fill="#1C69D4"/>
  <circle cx="32" cy="160" r="3" fill="#6FB07F"/>
  <circle cx="220" cy="180" r="3" fill="#FF6F00"/>
  <path d="M70 32 L72 38 L78 40 L72 42 L70 48 L68 42 L62 40 L68 38 Z" fill="#C9A24B"/>
  <path d="M170 30 L172 36 L178 38 L172 40 L170 46 L168 40 L162 38 L168 36 Z" fill="#1C69D4"/>
  <!-- Shadow -->
  <ellipse cx="120" cy="222" rx="60" ry="5" fill="#0B0B10" opacity="0.08"/>
  <!-- Body -->
  <path d="M70 202 Q70 148 120 142 Q170 148 170 202 Q170 212 160 214 L80 214 Q70 212 70 202 Z" fill="#8B5E3C"/>
  <!-- Belly -->
  <path d="M90 202 Q90 160 120 158 Q150 160 150 202 Q150 210 142 212 L98 212 Q90 210 90 202 Z" fill="#F4E4C1"/>
  <!-- Left arm (thumbs up) -->
  <path d="M82 158 Q66 130 64 96 Q66 86 76 86 Q86 90 88 110 L92 144 Z" fill="#8B5E3C"/>
  <ellipse cx="72" cy="80" rx="13" ry="14" fill="#8B5E3C"/>
  <ellipse cx="72" cy="82" rx="8" ry="9" fill="#F4E4C1"/>
  <!-- Thumb up -->
  <path d="M72 70 Q72 56 78 54 Q82 54 82 64 L82 72" fill="#8B5E3C" stroke="#5C3A20" stroke-width="0.6"/>
  <!-- Right arm up -->
  <path d="M158 158 Q174 130 176 96 Q174 86 164 86 Q154 90 152 110 L148 144 Z" fill="#8B5E3C"/>
  <ellipse cx="170" cy="80" rx="13" ry="14" fill="#8B5E3C"/>
  <ellipse cx="170" cy="82" rx="8" ry="9" fill="#F4E4C1"/>
  <circle cx="167" cy="79" r="1.2" fill="#5C3A20"/>
  <circle cx="173" cy="79" r="1.2" fill="#5C3A20"/>
  <circle cx="170" cy="83" r="1.2" fill="#5C3A20"/>
  <circle cx="65" cy="79" r="1.2" fill="#5C3A20"/>
  <circle cx="71" cy="79" r="1.2" fill="#5C3A20"/>
  <circle cx="68" cy="83" r="1.2" fill="#5C3A20"/>
  <!-- Head -->
  <ellipse cx="120" cy="98" rx="58" ry="56" fill="#8B5E3C"/>
  <!-- Ears -->
  <circle cx="76" cy="56" r="11" fill="#8B5E3C"/>
  <circle cx="76" cy="56" r="6" fill="#F4E4C1"/>
  <circle cx="164" cy="56" r="11" fill="#8B5E3C"/>
  <circle cx="164" cy="56" r="6" fill="#F4E4C1"/>
  <!-- Face mask -->
  <ellipse cx="120" cy="108" rx="40" ry="36" fill="#F4E4C1"/>
  <!-- Eyes (closed happy) -->
  <path d="M92 100 Q100 92 108 100" fill="none" stroke="#0B0B10" stroke-width="2.4" stroke-linecap="round"/>
  <path d="M132 100 Q140 92 148 100" fill="none" stroke="#0B0B10" stroke-width="2.4" stroke-linecap="round"/>
  <!-- Cheek blush -->
  <ellipse cx="86" cy="120" rx="7" ry="4" fill="#FF6F00" opacity="0.25"/>
  <ellipse cx="154" cy="120" rx="7" ry="4" fill="#FF6F00" opacity="0.25"/>
  <!-- Nose -->
  <path d="M114 116 Q120 110 126 116 Q124 122 120 122 Q116 122 114 116 Z" fill="#0B0B10"/>
  <!-- Mouth (big smile) -->
  <path d="M120 122 L120 130" stroke="#0B0B10" stroke-width="1.4" stroke-linecap="round"/>
  <path d="M104 130 Q120 144 136 130 Q128 134 120 134 Q112 134 104 130 Z" fill="#0B0B10"/>
  <path d="M120 134 L120 130" fill="#FF6F00"/>
  <!-- Whiskers -->
  <line x1="98" y1="122" x2="78" y2="120" stroke="#5C3A20" stroke-width="0.9" stroke-linecap="round"/>
  <line x1="98" y1="126" x2="78" y2="128" stroke="#5C3A20" stroke-width="0.9" stroke-linecap="round"/>
  <line x1="142" y1="122" x2="162" y2="120" stroke="#5C3A20" stroke-width="0.9" stroke-linecap="round"/>
  <line x1="142" y1="126" x2="162" y2="128" stroke="#5C3A20" stroke-width="0.9" stroke-linecap="round"/>
  <!-- Star burst -->
  <path d="M200 100 L204 110 L214 110 L206 116 L210 126 L200 120 L190 126 L194 116 L186 110 L196 110 Z" fill="#C9A24B" opacity="0.9"/>
</svg>
