<?xml version="1.0" encoding="UTF-8"?>
<svg xmlns="http://www.w3.org/2000/svg" viewBox="0 0 240 240" width="240" height="240" role="img" aria-labelledby="bao404Title">
  <title id="bao404Title">Bao the otter — 404 page confused</title>
  <!-- Background -->
  <rect width="240" height="240" fill="#FFFFFF"/>
  <!-- Shadow -->
  <ellipse cx="120" cy="220" rx="58" ry="6" fill="#0B0B10" opacity="0.08"/>
  <!-- Question mark bubble -->
  <g transform="translate(36 28)">
    <path d="M8 4 Q44 -8 70 8 Q82 22 74 38 Q86 50 76 64 Q60 78 38 72 Q14 76 4 56 Q-4 38 8 24 Z" fill="#FFFFFF" stroke="#1C69D4" stroke-width="2"/>
    <path d="M44 60 L36 78 L48 70 Z" fill="#FFFFFF" stroke="#1C69D4" stroke-width="2"/>
    <text x="42" y="46" font-family="Inter, sans-serif" font-size="36" font-weight="800" fill="#1C69D4" text-anchor="middle">?</text>
  </g>
  <!-- Body (slight tilt) -->
  <g transform="rotate(-6 120 160)">
    <path d="M70 200 Q70 145 120 140 Q170 145 170 200 Q170 210 160 212 L80 212 Q70 210 70 200 Z" fill="#8B5E3C"/>
    <!-- Belly -->
    <path d="M90 200 Q90 158 120 156 Q150 158 150 200 Q150 208 142 210 L98 210 Q90 208 90 200 Z" fill="#F4E4C1"/>
    <!-- Right arm (scratching head) -->
    <path d="M148 144 Q170 130 178 96 Q180 84 172 80 Q160 80 156 96 L150 130 Z" fill="#8B5E3C"/>
    <ellipse cx="172" cy="78" rx="11" ry="10" fill="#8B5E3C" transform="rotate(20 172 78)"/>
    <ellipse cx="172" cy="78" rx="7" ry="6" fill="#F4E4C1" transform="rotate(20 172 78)"/>
    <!-- Left arm (down) -->
    <path d="M80 162 Q66 178 70 198 Q78 204 86 200 Q88 184 90 174 Z" fill="#8B5E3C"/>
    <ellipse cx="78" cy="200" rx="9" ry="7" fill="#F4E4C1"/>
    <!-- Head -->
    <ellipse cx="120" cy="98" rx="58" ry="56" fill="#8B5E3C"/>
    <!-- Ears -->
    <circle cx="76" cy="56" r="11" fill="#8B5E3C"/>
    <circle cx="76" cy="56" r="6" fill="#F4E4C1"/>
    <circle cx="164" cy="56" r="11" fill="#8B5E3C"/>
    <circle cx="164" cy="56" r="6" fill="#F4E4C1"/>
    <!-- Face mask -->
    <ellipse cx="120" cy="108" rx="40" ry="36" fill="#F4E4C1"/>
    <!-- Eyes (one closed, one open) -->
    <path d="M92 100 Q100 92 108 100" fill="none" stroke="#0B0B10" stroke-width="2.2" stroke-linecap="round"/>
    <ellipse cx="140" cy="100" rx="6" ry="8" fill="#0B0B10"/>
    <circle cx="142" cy="97" r="2" fill="#FFFFFF"/>
    <!-- Cheek blush -->
    <ellipse cx="86" cy="118" rx="6" ry="3" fill="#FF6F00" opacity="0.18"/>
    <ellipse cx="154" cy="118" rx="6" ry="3" fill="#FF6F00" opacity="0.18"/>
    <!-- Nose -->
    <path d="M114 116 Q120 110 126 116 Q124 122 120 122 Q116 122 114 116 Z" fill="#0B0B10"/>
    <!-- Mouth (small uncertain) -->
    <path d="M120 122 L120 126" stroke="#0B0B10" stroke-width="1.4" stroke-linecap="round"/>
    <ellipse cx="120" cy="130" rx="4" ry="2" fill="none" stroke="#0B0B10" stroke-width="1.4"/>
    <!-- Whiskers -->
    <line x1="98" y1="120" x2="78" y2="118" stroke="#5C3A20" stroke-width="0.9" stroke-linecap="round"/>
    <line x1="98" y1="124" x2="78" y2="126" stroke="#5C3A20" stroke-width="0.9" stroke-linecap="round"/>
    <line x1="142" y1="120" x2="162" y2="118" stroke="#5C3A20" stroke-width="0.9" stroke-linecap="round"/>
    <line x1="142" y1="124" x2="162" y2="126" stroke="#5C3A20" stroke-width="0.9" stroke-linecap="round"/>
  </g>
  <!-- Sweat drop -->
  <path d="M168 70 Q164 78 170 80 Q176 78 172 70 Q170 66 168 70 Z" fill="#1C69D4" opacity="0.7"/>
</svg>
